HIERARCHY
ROOT root
{
	OFFSET 0.000000 0.000000 0.000000
	CHANNELS 6 Xposition Yposition Zposition Zrotation Yrotation Xrotation
	JOINT lhip
	{
		OFFSET 0.058581 -0.082280 -0.017664
		CHANNELS 3 Zrotation Yrotation Xrotation
		JOINT lknee
		{
			OFFSET 0.043451 -0.386469 0.008037
			CHANNELS 3 Zrotation Yrotation Xrotation
			JOINT lankle
			{
				OFFSET -0.014790 -0.426874 -0.037428
				CHANNELS 3 Zrotation Yrotation Xrotation
				JOINT ltoe
				{
					OFFSET 0.041054 -0.060286 0.122042
					CHANNELS 3 Zrotation Yrotation Xrotation
					End Site
					{
						OFFSET 0.000000 0.000000 0.000000
					}
				}
			}
		}
	}
	JOINT rhip
	{
		OFFSET -0.060310 -0.090513 -0.013543
		CHANNELS 3 Zrotation Yrotation Xrotation
		JOINT rknee
		{
			OFFSET -0.043257 -0.383688 -0.004843
			CHANNELS 3 Zrotation Yrotation Xrotation
			JOINT rankle
			{
				OFFSET 0.019056 -0.420046 -0.034562
				CHANNELS 3 Zrotation Yrotation Xrotation
				JOINT rtoe
				{
					OFFSET -0.034840 -0.062106 0.130323
					CHANNELS 3 Zrotation Yrotation Xrotation
					End Site
					{
						OFFSET 0.000000 0.000000 0.000000
					}
				}
			}
		}
	}
	JOINT lowerback
	{
		OFFSET 0.004439 0.124404 -0.038385
		CHANNELS 3 Zrotation Yrotation Xrotation
		JOINT upperback
		{
			OFFSET 0.004488 0.137956 0.026820
			CHANNELS 3 Zrotation Yrotation Xrotation
			JOINT chest
			{
				OFFSET -0.002265 0.056032 0.002855
				CHANNELS 3 Zrotation Yrotation Xrotation
				JOINT lowerneck
				{
					OFFSET -0.013390 0.211636 -0.033468
					CHANNELS 3 Zrotation Yrotation Xrotation
					JOINT upperneck
					{
						OFFSET 0.010113 0.088937 0.050410
						CHANNELS 3 Zrotation Yrotation Xrotation
						End Site
						{
							OFFSET 0.000000 0.000000 0.000000
						}
					}
				}
				JOINT lclavicle
				{
					OFFSET 0.071702 0.114000 -0.018898
					CHANNELS 3 Zrotation Yrotation Xrotation
					JOINT lshoulder
					{
						OFFSET 0.122921 0.045205 -0.019046
						CHANNELS 3 Zrotation Yrotation Xrotation
						JOINT lelbow
						{
							OFFSET 0.255332 -0.015649 -0.022946
							CHANNELS 3 Zrotation Yrotation Xrotation
							JOINT lwrist
							{
								OFFSET 0.265709 0.012698 -0.007375
								CHANNELS 3 Zrotation Yrotation Xrotation
								End Site
								{
									OFFSET 0.000000 0.000000 0.000000
								}
							}
						}
					}
				}
				JOINT rclavicle
				{
					OFFSET -0.082954 0.112472 -0.023707
					CHANNELS 3 Zrotation Yrotation Xrotation
					JOINT rshoulder
					{
						OFFSET -0.113228 0.046853 -0.008472
						CHANNELS 3 Zrotation Yrotation Xrotation
						JOINT relbow
						{
							OFFSET -0.260127 -0.014369 -0.031269
							CHANNELS 3 Zrotation Yrotation Xrotation
							JOINT rwrist
							{
								OFFSET -0.269108 0.006794 -0.006027
								CHANNELS 3 Zrotation Yrotation Xrotation
								End Site
								{
									OFFSET 0.000000 0.000000 0.000000
								}
							}
						}
					}
				}
			}
		}
	}
}
MOTION
Frames: 12
Frame Time: 0.033333
-0.238390 0.216104 0.917764 121.275977 -18.330949 127.871184 5.070289 -9.736022 -42.133571 -5.970453 -5.730838 20.968376 -10.568531 -7.410923 -12.391186 0.000000 -0.000000 0.000000 -22.224848 -11.315495 -72.615778 -4.168129 -22.712298 45.352022 4.785204 -1.518862 -13.999627 0.000000 -0.000000 0.000000 15.742369 -9.071195 58.275613 -4.021256 5.738077 6.852643 3.683874 1.998284 2.767786 0.855182 -10.742241 -4.194857 5.942268 -8.989209 -18.615479 -7.980013 -31.181737 -5.729122 -72.515978 -22.251708 37.055460 -3.092704 -71.242805 4.711822 -13.798277 -57.001020 -51.863487 -15.354598 33.139190 -4.420723 -18.539035 13.771470 -34.285837 -3.436808 5.283145 -39.738266 -19.328925 17.268524 0.339375 
-0.235422 0.215967 0.917363 121.355872 -18.513572 128.226601 5.031481 -9.621023 -42.061888 -6.089483 -6.089320 20.240936 -10.788825 -7.194655 -11.993875 0.000000 -0.000000 0.000000 -22.395013 -11.415382 -72.767992 -4.151013 -22.838467 45.407390 4.798583 -1.656392 -14.352691 0.000000 -0.000000 0.000000 15.658099 -9.137955 58.412602 -4.034329 5.774479 6.553992 3.701253 2.069424 2.949959 0.861806 -10.835318 -4.245378 5.965422 -8.964227 -18.803930 -8.278270 -31.067903 -5.596162 -72.446733 -22.223526 37.354649 -4.144077 -71.579488 6.689115 -10.135046 -55.582459 -53.311582 -14.913155 33.197806 -4.263589 -19.204245 13.492847 -34.384402 -3.276336 5.458605 -39.078801 -21.886870 17.896325 0.229933 
-0.233353 0.216325 0.917504 121.574142 -18.799556 128.383303 4.924720 -9.700143 -42.040891 -6.166523 -6.240302 19.851358 -10.836642 -7.183068 -11.508745 0.000000 -0.000000 0.000000 -22.500529 -11.655631 -72.823711 -4.187498 -22.718223 45.567741 4.923413 -1.894448 -14.571416 0.000000 -0.000000 0.000000 15.704571 -9.203314 58.188822 -3.847824 5.740558 6.640812 3.722495 2.057865 3.089621 0.821837 -10.919813 -4.334387 6.012479 -8.958352 -18.826079 -8.253529 -31.044439 -5.573291 -72.429976 -22.348190 37.559476 -4.752451 -71.175109 6.557143 -6.792591 -54.398580 -55.647362 -14.825412 32.997867 -4.245501 -19.323047 13.363263 -34.057765 -3.275825 5.822355 -39.179973 -22.345341 17.976176 0.448906 
-0.231346 0.216961 0.918061 121.547923 -18.964373 128.555495 4.704290 -9.692156 -41.883778 -6.195396 -6.500558 19.503854 -10.576686 -6.758699 -11.082183 0.000000 -0.000000 0.000000 -22.492361 -11.764828 -72.862325 -3.860325 -22.313977 45.401874 4.946849 -2.445412 -14.752081 0.000000 -0.000000 0.000000 15.668479 -9.212551 58.038874 -3.815441 5.735918 6.702965 3.693875 1.939959 3.306021 0.777575 -11.183874 -4.808800 5.791671 -8.548649 -18.638331 -8.250207 -30.934736 -5.615624 -72.143865 -22.467048 37.949363 -6.801676 -71.325935 9.061504 -1.905293 -52.422769 -58.188488 -14.770248 32.853397 -4.343094 -19.405716 13.408471 -33.647949 -3.486252 6.180296 -39.122615 -23.522116 18.497173 0.709535 
-0.229357 0.217374 0.918114 121.295805 -18.924207 128.787936 4.545390 -9.440521 -41.764959 -6.252791 -6.862360 19.166799 -10.782073 -6.451226 -10.613620 0.000000 -0.000000 0.000000 -22.365021 -11.614144 -73.062322 -3.795649 -22.019710 45.338802 4.891796 -2.673466 -14.811033 0.000000 -0.000000 0.000000 15.392531 -9.076003 57.999111 -3.837453 5.772139 6.504326 3.691904 1.980586 3.482604 0.699426 -11.394551 -4.899162 5.897294 -8.445046 -18.549122 -8.267067 -31.121880 -5.572624 -71.860106 -22.370927 38.321542 -8.382378 -71.471033 11.599995 1.820820 -50.984620 -58.521294 -14.728645 33.052542 -4.407677 -19.451496 13.401719 -33.398588 -3.227370 6.163574 -38.765436 -24.352099 18.898575 1.218322 
-0.227764 0.217905 0.918813 121.088174 -18.786279 128.873163 4.548457 -9.179864 -41.642572 -6.358507 -7.128381 19.156389 -10.826859 -6.336049 -10.380843 0.000000 -0.000000 0.000000 -22.076544 -11.348096 -73.087550 -3.581620 -21.520886 45.061185 4.809495 -3.131227 -14.889673 0.000000 -0.000000 0.000000 15.075947 -8.951074 58.199231 -3.851386 5.780180 6.162234 3.738814 2.072900 3.592182 0.592688 -11.676024 -5.052102 6.116834 -8.317224 -18.319522 -8.070134 -31.000466 -5.708593 -71.809611 -22.369089 38.563404 -9.448904 -70.764094 11.927427 6.280322 -49.119608 -62.123828 -14.730705 33.167008 -4.559826 -19.285752 13.624947 -32.948311 -2.831930 6.107664 -38.368385 -23.872459 18.590645 1.366385 
-0.226277 0.219085 0.919024 120.954332 -18.819723 128.799056 4.443228 -9.152782 -41.379004 -6.598560 -7.675138 19.064157 -10.610436 -6.080317 -10.302678 0.000000 -0.000000 0.000000 -21.979932 -11.445547 -72.995358 -3.201459 -21.176583 45.031755 4.784010 -3.424244 -14.944284 0.000000 -0.000000 0.000000 14.877477 -8.887718 58.127007 -3.769746 5.742162 6.158986 3.740862 2.103535 3.747253 0.425372 -11.974719 -5.383827 6.276395 -8.161957 -18.212036 -8.221653 -31.294842 -5.802392 -71.307810 -22.169788 39.019797 -11.139492 -71.246387 13.771304 10.483507 -46.587673 -63.269873 -14.597710 33.444706 -4.883090 -19.211682 13.560217 -32.462843 -2.692250 6.225883 -38.313187 -23.299752 18.309898 2.607254 
-0.225329 0.220153 0.919422 120.846893 -18.840810 128.682519 4.360368 -9.177818 -41.203313 -6.908516 -8.267317 19.162155 -10.347239 -5.543096 -10.177851 0.000000 -0.000000 0.000000 -21.909008 -11.280230 -72.922978 -2.923208 -20.486612 44.931545 4.766479 -4.100351 -14.833810 0.000000 -0.000000 0.000000 14.736556 -8.763304 58.090461 -3.640399 5.793960 6.074890 3.803215 2.207116 3.849434 0.225007 -12.573393 -5.566986 6.530396 -7.927547 -18.264862 -8.383251 -31.699651 -5.721324 -70.803908 -22.194275 39.549102 -13.276502 -71.432557 15.987303 14.983508 -43.942571 -63.473991 -14.344358 33.848595 -4.909306 -19.340767 12.981619 -31.897708 -2.606739 6.385553 -38.570750 -23.207257 18.244558 3.946306 
-0.224649 0.221378 0.919831 120.526542 -18.755974 128.517755 4.370098 -9.451805 -40.889025 -7.137503 -8.917588 19.186493 -9.924626 -4.791554 -10.187380 0.000000 -0.000000 0.000000 -21.882547 -11.031788 -72.841977 -2.269257 -19.672118 44.651603 4.782614 -5.018594 -14.620668 0.000000 -0.000000 0.000000 14.504646 -8.686996 58.197878 -3.618302 5.946247 5.933432 3.767469 2.323057 4.036194 -0.097549 -13.164795 -5.966111 6.824798 -7.312592 -18.085598 -8.097755 -31.986022 -5.869257 -70.692074 -22.177326 40.133687 -13.157216 -71.322680 14.987752 20.015036 -40.667237 -66.761572 -14.658519 34.083670 -5.268396 -18.878056 12.732346 -30.912051 -2.481897 5.990651 -39.050270 -19.987452 16.893776 4.881530 
-0.223936 0.223241 0.920310 120.180183 -18.668079 128.137847 3.925001 -9.388229 -40.498723 -7.318678 -9.752319 19.738684 -9.546728 -4.289231 -10.367590 0.000000 -0.000000 0.000000 -21.702866 -10.789599 -72.572664 -1.700761 -18.597661 44.370428 4.653875 -5.893061 -14.319616 0.000000 -0.000000 0.000000 14.349072 -8.730962 58.299288 -3.672845 6.141754 5.812735 3.734414 2.350285 4.174388 -0.285808 -14.425878 -6.415486 6.904964 -6.741060 -17.864114 -8.268073 -32.484361 -5.825510 -70.290585 -21.751142 40.754693 -15.097198 -72.354417 19.397745 25.429440 -37.656338 -65.140690 -15.104255 34.714786 -5.636356 -18.044261 12.015331 -30.012639 -2.478539 5.874664 -39.577042 -18.653149 15.927437 4.899200 
-0.223870 0.224990 0.920922 119.750150 -18.501687 127.610616 3.632513 -9.506736 -39.994211 -7.690063 -10.496280 20.290827 -8.853556 -3.381294 -10.625780 0.000000 -0.000000 0.000000 -21.611679 -10.430523 -72.148233 -1.184304 -17.625875 44.054903 4.626338 -6.600687 -14.062146 0.000000 -0.000000 0.000000 14.018602 -8.493130 58.568135 -3.625266 6.279892 5.300181 3.886055 2.412960 4.449422 -0.532633 -15.095324 -6.581940 6.902012 -6.381770 -17.790736 -8.244509 -32.842755 -5.626554 -70.275760 -21.670029 41.551025 -16.734082 -73.026414 23.878210 31.353463 -34.752639 -62.682353 -15.470166 35.316985 -6.021747 -16.925750 11.486063 -28.892735 -2.186640 5.669010 -39.563693 -19.428123 15.098643 4.177272 
-0.223893 0.226788 0.922245 119.282932 -17.971904 126.587070 3.455146 -9.479021 -39.064277 -8.083225 -11.501553 21.138211 -7.916133 -2.180524 -11.342223 0.000000 -0.000000 0.000000 -21.103751 -9.648389 -71.204949 -0.376851 -16.025674 43.434189 4.270762 -7.886196 -13.580037 0.000000 -0.000000 0.000000 13.565377 -8.072799 59.107813 -3.462380 6.507601 4.778187 4.210596 2.263933 4.587893 -0.393884 -16.526619 -6.793758 6.328675 -5.739813 -17.097766 -8.672317 -32.912875 -5.276245 -69.929510 -21.452798 42.183438 -18.808383 -73.671553 30.044838 38.458847 -31.013775 -60.028504 -15.999537 35.978104 -6.698290 -15.000793 11.566401 -26.865807 -1.732811 5.184940 -39.242947 -21.475440 13.926634 2.842854 
